# xmcd CD database file
#
# Track frame offsets:
#	150
#	12727
#	32646
#	45950
#	61295
#	72922
#	88010
#	103037
#	115869
#	135989
#	150363
#	165523
#	178584
#	199711
#	214903
#	230050
#	245281
#	257182
#	271895
#	287240
#	305409
#
# Disc length: 4251 seconds
#
# Revision: 0
# Processed by: cddbd v1.5.1PL2 Copyright (c) Steve Scherf et al.
# Submitted via: CDex 1.51
#
DISCID=23109915
DTITLE=Alison Hams - Remember
DYEAR=2006
DGENRE=Country
TTITLE0=Freight Train
TTITLE1=A Soft Place To Fall
TTITLE2=Hello Hopeville
TTITLE3=Little Did She Know
TTITLE4=You're The Reason
TTITLE5=Desperado
TTITLE6='till You Love Me Again
TTITLE7=Hole In My Pocket
TTITLE8=You Take The Sunshine
TTITLE9=Old Rocking Chair
TTITLE10=Softley And Tenderley
TTITLE11=Now That's Alright With Me
TTITLE12=Colour Of Your Eye's
TTITLE13=Stuck In The Middle
TTITLE14=Something In The Water
TTITLE15=You Wouldn't Say
TTITLE16=One In A Million
TTITLE17=Hear From Me
TTITLE18=Water's Edge
TTITLE19=I Will Travel
TTITLE20=In The Gravel Yard
EXTD=YEAR: 2006
EXTT0=
EXTT1=
EXTT2=
EXTT3=
EXTT4=
EXTT5=
EXTT6=
EXTT7=
EXTT8=
EXTT9=
EXTT10=
EXTT11=
EXTT12=
EXTT13=
EXTT14=
EXTT15=
EXTT16=
EXTT17=
EXTT18=
EXTT19=
EXTT20=
PLAYORDER=
